<svg width="16" height="20" viewBox="0 0 16 20" fill="none" xmlns="http://www.w3.org/2000/svg">
<path d="M13.2457 7.05882H11.4286V1.17647C11.4286 0.529412 10.9143 0 10.2857 0H5.71429C5.08571 0 4.57143 0.529412 4.57143 1.17647V7.05882H2.75429C1.73714 7.05882 1.22286 8.32941 1.94286 9.07059L7.18857 14.4706C7.63429 14.9294 8.35429 14.9294 8.8 14.4706L14.0457 9.07059C14.7657 8.32941 14.2629 7.05882 13.2457 7.05882ZM0 18.8235C0 19.4706 0.514286 20 1.14286 20H14.8571C15.4857 20 16 19.4706 16 18.8235C16 18.1765 15.4857 17.6471 14.8571 17.6471H1.14286C0.514286 17.6471 0 18.1765 0 18.8235Z" fill="white"/>
</svg>
