<svg width="15" height="15" viewBox="0 0 15 15" fill="none" xmlns="http://www.w3.org/2000/svg">
<path fill-rule="evenodd" clip-rule="evenodd" d="M7.5 8.495C8.03026 8.495 8.53882 8.28443 8.91386 7.90957C9.2889 7.53471 9.49973 7.02626 9.5 6.496C9.5 5.96557 9.28929 5.45686 8.91421 5.08179C8.53914 4.70672 8.03043 4.496 7.5 4.496C6.96957 4.496 6.46086 4.70672 6.08579 5.08179C5.71071 5.45686 5.5 5.96557 5.5 6.496C5.50027 7.02626 5.7111 7.53471 6.08614 7.90957C6.46118 8.28443 6.96974 8.495 7.5 8.495Z" stroke="white" stroke-linecap="square"/>
<path fill-rule="evenodd" clip-rule="evenodd" d="M13.5 6.496C13.5 11.493 8.5 14.491 7.5 14.491C6.5 14.491 1.5 11.493 1.5 6.496C1.50106 4.90539 2.13367 3.3803 3.25877 2.25594C4.38388 1.13159 5.90939 0.5 7.5 0.5C10.813 0.5 13.5 3.185 13.5 6.496Z" stroke="white" stroke-linecap="square"/>
</svg>
