<svg width="22" height="18" viewBox="0 0 22 18" fill="none" xmlns="http://www.w3.org/2000/svg">
<g clip-path="url(#clip0_208_568)">
<path d="M10.9999 13.75C8.39258 13.75 6.28196 11.7318 6.08774 9.17431L2.4818 6.38753C2.00777 6.98222 1.57155 7.61094 1.21955 8.29844C1.14092 8.45399 1.09994 8.62584 1.09994 8.80014C1.09994 8.97444 1.14092 9.14629 1.21955 9.30184C3.08371 12.9391 6.77421 15.4 10.9999 15.4C11.925 15.4 12.8173 15.2625 13.6774 15.0404L11.8937 13.6603C11.5991 13.7172 11.2999 13.7472 10.9999 13.75ZM21.7875 15.7472L17.9873 12.8102C19.1417 11.8373 20.0911 10.6446 20.7803 9.3015C20.8589 9.14595 20.8999 8.97409 20.8999 8.7998C20.8999 8.6255 20.8589 8.45364 20.7803 8.29809C18.9161 4.66087 15.2256 2.19997 10.9999 2.19997C9.23013 2.20211 7.48907 2.64766 5.9358 3.49591L1.56261 0.115812C1.50559 0.0714364 1.44037 0.038733 1.3707 0.0195705C1.30103 0.000408089 1.22827 -0.00483781 1.15657 0.0041326C1.08487 0.013103 1.01564 0.0361139 0.952836 0.0718504C0.890033 0.107587 0.834887 0.155348 0.790551 0.212406L0.115769 1.08106C0.0262564 1.19621 -0.0138538 1.3422 0.00426048 1.48692C0.0223748 1.63164 0.0972301 1.76324 0.212363 1.85278L20.4372 17.4841C20.4943 17.5285 20.5595 17.5612 20.6292 17.5804C20.6988 17.5995 20.7716 17.6048 20.8433 17.5958C20.915 17.5868 20.9842 17.5638 21.047 17.5281C21.1098 17.4923 21.165 17.4446 21.2093 17.3875L21.8844 16.5189C21.9739 16.4037 22.014 16.2577 21.9958 16.1129C21.9776 15.9682 21.9027 15.8366 21.7875 15.7472ZM15.4721 10.8659L14.1212 9.82159C14.2349 9.49278 14.2953 9.14787 14.2999 8.79997C14.3066 8.29062 14.1938 7.7868 13.9705 7.32897C13.7471 6.87115 13.4195 6.47208 13.014 6.16382C12.6085 5.85557 12.1363 5.64672 11.6354 5.55405C11.1345 5.46139 10.6189 5.48748 10.1299 5.63025C10.3372 5.91113 10.4493 6.25088 10.4499 6.59997C10.4448 6.71613 10.4271 6.8314 10.397 6.94372L7.86664 4.98812C8.74559 4.25358 9.85445 3.85079 10.9999 3.84997C11.6501 3.84961 12.2939 3.9774 12.8946 4.22603C13.4954 4.47466 14.0412 4.83926 14.5009 5.29898C14.9606 5.75871 15.3252 6.30453 15.5739 6.90526C15.8225 7.50598 15.9503 8.14982 15.9499 8.79997C15.9499 9.5435 15.7681 10.2365 15.4721 10.8662V10.8659Z" fill="#353535"/>
</g>
<defs>
<clipPath id="clip0_208_568">
<rect width="22" height="17.6" fill="white"/>
</clipPath>
</defs>
</svg>
