<svg width="29" height="32" viewBox="0 0 29 32" fill="none" xmlns="http://www.w3.org/2000/svg">
<path d="M15.361 30.824L15.345 30.8269L15.2421 30.8777L15.2131 30.8835L15.1928 30.8777L15.0898 30.8269C15.0744 30.8221 15.0628 30.8245 15.055 30.8342L15.0492 30.8487L15.0246 31.4693L15.0318 31.4983L15.0463 31.5171L15.1971 31.6244L15.2189 31.6302L15.2363 31.6244L15.3871 31.5171L15.4045 31.4939L15.4103 31.4693L15.3856 30.8501C15.3818 30.8347 15.3735 30.826 15.361 30.824ZM15.7452 30.6602L15.7264 30.6631L15.4581 30.7979L15.4436 30.8124L15.4393 30.8284L15.4654 31.4519L15.4726 31.4693L15.4842 31.4794L15.7757 31.6143C15.794 31.6191 15.8081 31.6152 15.8177 31.6027L15.8235 31.5824L15.7742 30.6921C15.7694 30.6747 15.7597 30.664 15.7452 30.6602ZM14.7085 30.6631C14.7021 30.6592 14.6945 30.6579 14.6872 30.6596C14.6799 30.6612 14.6735 30.6656 14.6693 30.6718L14.6606 30.6921L14.6113 31.5824C14.6123 31.5998 14.6205 31.6114 14.636 31.6172L14.6577 31.6143L14.9492 31.4794L14.9637 31.4678L14.9695 31.4519L14.9941 30.8284L14.9898 30.811L14.9753 30.7965L14.7085 30.6631Z" fill="white"/>
<path d="M14.5 0C15.7992 0 17.0578 0.1711 18.2555 0.49155L15.1728 3.5728C14.9389 3.8076 14.7327 4.06836 14.558 4.35H14.5C12.4925 4.35 10.5301 4.94529 8.86096 6.06058C7.1918 7.17588 5.89085 8.76109 5.12262 10.6158C4.35439 12.4704 4.15339 14.5113 4.54503 16.4802C4.93667 18.4491 5.90336 20.2576 7.32287 21.6771C8.74237 23.0966 10.5509 24.0633 12.5198 24.455C14.4887 24.8466 16.5296 24.6456 18.3842 23.8774C20.2389 23.1091 21.8241 21.8082 22.9394 20.139C24.0547 18.4699 24.65 16.5075 24.65 14.5V14.442C24.9303 14.268 25.1889 14.0626 25.4258 13.8258L28.5084 10.7445C28.8289 11.9422 29 13.2008 29 14.5C29 22.5084 22.5084 29 14.5 29C6.49165 29 0 22.5084 0 14.5C0 6.49165 6.49165 0 14.5 0ZM13.8997 7.27465C13.8997 8.5086 13.8388 9.75995 13.9055 10.9925L13.1225 11.7755C12.8532 12.0448 12.6395 12.3646 12.4937 12.7165C12.348 13.0684 12.2729 13.4456 12.2729 13.8265C12.2729 14.2074 12.348 14.5846 12.4937 14.9365C12.6395 15.2884 12.8532 15.6082 13.1225 15.8775C13.3918 16.1468 13.7116 16.3605 14.0635 16.5063C14.4154 16.652 14.7926 16.7271 15.1735 16.7271C15.5544 16.7271 15.9316 16.652 16.2835 16.5063C16.6354 16.3605 16.9552 16.1468 17.2246 15.8775L18.0075 15.0945C19.24 15.1612 20.49 15.1003 21.7254 15.1003C21.6108 16.4783 21.1046 17.7948 20.2664 18.8945C19.4282 19.9943 18.293 20.8314 16.9947 21.3071C15.6963 21.7829 14.289 21.8774 12.9388 21.5796C11.5885 21.2818 10.3515 20.604 9.37374 19.6263C8.39599 18.6485 7.71824 17.4115 7.42043 16.0612C7.12261 14.711 7.21714 13.3037 7.69289 12.0053C8.16863 10.707 9.00573 9.57179 10.1055 8.7336C11.2052 7.89541 12.5217 7.38919 13.8997 7.27465ZM23.9308 0.18415C24.1955 0.293885 24.4217 0.479569 24.5809 0.717764C24.7401 0.955959 24.8252 1.23599 24.8255 1.5225V4.176H27.4775C27.7642 4.17606 28.0445 4.26114 28.2829 4.42047C28.5213 4.5798 28.7071 4.80624 28.8168 5.07115C28.9266 5.33607 28.9553 5.62756 28.8993 5.9088C28.8434 6.19003 28.7054 6.44837 28.5027 6.65115L23.374 11.774C23.1021 12.0459 22.7334 12.1988 22.3489 12.1989H18.85L16.1994 14.8509C15.9273 15.123 15.5583 15.2758 15.1735 15.2758C14.7887 15.2758 14.4197 15.123 14.1477 14.8509C13.8756 14.5788 13.7227 14.2098 13.7227 13.825C13.7227 13.4402 13.8756 13.0712 14.1477 12.7991L16.7997 10.15V6.6497C16.7996 6.45905 16.837 6.27025 16.9099 6.09409C16.9828 5.91794 17.0897 5.75789 17.2246 5.6231L22.3503 0.49735C22.5531 0.294448 22.8115 0.15625 23.0928 0.10024C23.3742 0.0442314 23.6658 0.0729279 23.9308 0.1827" fill="white"/>
</svg>
