<svg width="22" height="22" viewBox="0 0 22 22" fill="none" xmlns="http://www.w3.org/2000/svg">
<path d="M4.8125 6.875C4.63016 6.875 4.4553 6.94743 4.32636 7.07636C4.19743 7.2053 4.125 7.38016 4.125 7.5625C4.125 7.74484 4.19743 7.9197 4.32636 8.04864C4.4553 8.17757 4.63016 8.25 4.8125 8.25H14.4375C14.6198 8.25 14.7947 8.17757 14.9236 8.04864C15.0526 7.9197 15.125 7.74484 15.125 7.5625C15.125 7.38016 15.0526 7.2053 14.9236 7.07636C14.7947 6.94743 14.6198 6.875 14.4375 6.875H4.8125ZM4.8125 9.625C4.63016 9.625 4.4553 9.69743 4.32636 9.82636C4.19743 9.9553 4.125 10.1302 4.125 10.3125V13.0625C4.125 13.2448 4.19743 13.4197 4.32636 13.5486C4.4553 13.6776 4.63016 13.75 4.8125 13.75H7.5625C7.74484 13.75 7.9197 13.6776 8.04864 13.5486C8.17757 13.4197 8.25 13.2448 8.25 13.0625V10.3125C8.25 10.1302 8.17757 9.9553 8.04864 9.82636C7.9197 9.69743 7.74484 9.625 7.5625 9.625H4.8125ZM5.5 12.375V11H6.875V12.375H5.5ZM10.3125 9.625C10.1302 9.625 9.9553 9.69743 9.82636 9.82636C9.69743 9.9553 9.625 10.1302 9.625 10.3125C9.625 10.4948 9.69743 10.6697 9.82636 10.7986C9.9553 10.9276 10.1302 11 10.3125 11H14.4375C14.6198 11 14.7947 10.9276 14.9236 10.7986C15.0526 10.6697 15.125 10.4948 15.125 10.3125C15.125 10.1302 15.0526 9.9553 14.9236 9.82636C14.7947 9.69743 14.6198 9.625 14.4375 9.625H10.3125ZM10.3125 12.375C10.1302 12.375 9.9553 12.4474 9.82636 12.5764C9.69743 12.7053 9.625 12.8802 9.625 13.0625C9.625 13.2448 9.69743 13.4197 9.82636 13.5486C9.9553 13.6776 10.1302 13.75 10.3125 13.75H14.4375C14.6198 13.75 14.7947 13.6776 14.9236 13.5486C15.0526 13.4197 15.125 13.2448 15.125 13.0625C15.125 12.8802 15.0526 12.7053 14.9236 12.5764C14.7947 12.4474 14.6198 12.375 14.4375 12.375H10.3125ZM1.375 5.5C1.375 4.77065 1.66473 4.07118 2.18046 3.55546C2.69618 3.03973 3.39565 2.75 4.125 2.75H15.125C15.8543 2.75 16.5538 3.03973 17.0695 3.55546C17.5853 4.07118 17.875 4.77065 17.875 5.5C18.6043 5.5 19.3038 5.78973 19.8195 6.30546C20.3353 6.82118 20.625 7.52065 20.625 8.25V14.4375C20.625 15.3492 20.2628 16.2235 19.6182 16.8682C18.9735 17.5128 18.0992 17.875 17.1875 17.875H4.8125C3.90082 17.875 3.02648 17.5128 2.38182 16.8682C1.73716 16.2235 1.375 15.3492 1.375 14.4375V5.5ZM17.1875 14.4375C17.0052 14.4375 16.8303 14.3651 16.7014 14.2361C16.5724 14.1072 16.5 13.9323 16.5 13.75V5.5C16.5 5.13533 16.3551 4.78559 16.0973 4.52773C15.8394 4.26987 15.4897 4.125 15.125 4.125H4.125C3.76033 4.125 3.41059 4.26987 3.15273 4.52773C2.89487 4.78559 2.75 5.13533 2.75 5.5V14.4375C2.75 14.9845 2.9673 15.5091 3.35409 15.8959C3.74089 16.2827 4.26549 16.5 4.8125 16.5H17.1875C17.7345 16.5 18.2591 16.2827 18.6459 15.8959C19.0327 15.5091 19.25 14.9845 19.25 14.4375V8.25C19.25 7.88533 19.1051 7.53559 18.8473 7.27773C18.5894 7.01987 18.2397 6.875 17.875 6.875V13.75C17.875 13.9323 17.8026 14.1072 17.6736 14.2361C17.5447 14.3651 17.3698 14.4375 17.1875 14.4375Z" fill="white"/>
</svg>
