<svg width="20" height="20" viewBox="0 0 20 20" fill="none" xmlns="http://www.w3.org/2000/svg">
<path d="M8.75 2.5C6.34125 2.5 4.375 4.46625 4.375 6.875C4.375 8.38125 5.14375 9.72 6.30875 10.5081C4.07937 11.4644 2.5 13.675 2.5 16.25H3.75C3.75 13.4813 5.98125 11.25 8.75 11.25C9.61 11.25 10.4088 11.4737 11.1125 11.8562C10.3928 12.746 10.0002 13.8557 10 15C10 17.7538 12.2462 20 15 20C17.7538 20 20 17.7538 20 15C20 12.2462 17.7538 10 15 10C13.9469 10.0014 12.9212 10.3362 12.07 10.9563C11.7938 10.7831 11.495 10.6375 11.1913 10.5075C11.786 10.1063 12.2733 9.56531 12.6104 8.93202C12.9475 8.29873 13.1242 7.59243 13.125 6.875C13.125 4.46625 11.1588 2.5 8.75 2.5ZM8.75 3.75C10.4831 3.75 11.875 5.14187 11.875 6.875C11.875 8.60813 10.4831 10 8.75 10C7.01687 10 5.625 8.60813 5.625 6.875C5.625 5.14187 7.01687 3.75 8.75 3.75ZM15 11.25C17.0787 11.25 18.75 12.9213 18.75 15C18.75 17.0787 17.0787 18.75 15 18.75C12.9213 18.75 11.25 17.0787 11.25 15C11.25 12.9213 12.9213 11.25 15 11.25ZM14.375 12.5V14.375H12.5V15.625H14.375V17.5H15.625V15.625H17.5V14.375H15.625V12.5H14.375Z" fill="white"/>
</svg>
