<svg width="20" height="20" viewBox="0 0 20 20" fill="none" xmlns="http://www.w3.org/2000/svg">
<path d="M12.8422 14.1485C13.4189 13.5838 13.8143 12.8601 13.9781 12.0697C14.1418 11.2794 14.0663 10.4582 13.7614 9.71087C13.4565 8.96356 12.9358 8.32402 12.2659 7.87384C11.596 7.42365 10.8071 7.18322 10 7.18322C9.19287 7.18322 8.40403 7.42365 7.73411 7.87384C7.06418 8.32402 6.54354 8.96356 6.2386 9.71087C5.93366 10.4582 5.85823 11.2794 6.02195 12.0697C6.18567 12.8601 6.5811 13.5838 7.15781 14.1485C6.18139 14.6675 5.36957 15.4493 4.81406 16.4055C4.6951 16.6204 4.66528 16.8735 4.731 17.1102C4.79673 17.347 4.95275 17.5484 5.16551 17.6713C5.37826 17.7941 5.63074 17.8286 5.86862 17.7672C6.1065 17.7058 6.31078 17.5535 6.4375 17.343C6.80384 16.724 7.32508 16.2112 7.9499 15.8549C8.57471 15.4987 9.28154 15.3113 10.0008 15.3113C10.72 15.3113 11.4269 15.4987 12.0517 15.8549C12.6765 16.2112 13.1977 16.724 13.5641 17.343C13.6244 17.452 13.7058 17.5478 13.8036 17.625C13.9013 17.7022 14.0135 17.7591 14.1335 17.7924C14.2535 17.8257 14.379 17.8348 14.5026 17.8191C14.6261 17.8034 14.7453 17.7632 14.8532 17.7009C14.961 17.6386 15.0554 17.5555 15.1308 17.4563C15.2061 17.3571 15.261 17.2439 15.2921 17.1233C15.3232 17.0027 15.33 16.8771 15.312 16.7539C15.2941 16.6306 15.2517 16.5122 15.1875 16.4055C14.6316 15.4491 13.8192 14.6673 12.8422 14.1485ZM7.8125 11.25C7.8125 10.8174 7.9408 10.3944 8.18116 10.0347C8.42153 9.67498 8.76317 9.3946 9.16288 9.22904C9.56259 9.06347 10.0024 9.02015 10.4268 9.10455C10.8511 9.18896 11.2409 9.3973 11.5468 9.70323C11.8527 10.0092 12.0611 10.3989 12.1455 10.8233C12.2299 11.2476 12.1866 11.6874 12.021 12.0871C11.8554 12.4869 11.575 12.8285 11.2153 13.0689C10.8556 13.3092 10.4326 13.4375 10 13.4375C9.41984 13.4375 8.86344 13.2071 8.45321 12.7968C8.04297 12.3866 7.8125 11.8302 7.8125 11.25ZM19.3133 11.9992C19.2148 12.0733 19.1027 12.1272 18.9834 12.1579C18.8641 12.1885 18.7399 12.1954 18.6179 12.1781C18.496 12.1607 18.3786 12.1195 18.2726 12.0568C18.1666 11.9941 18.0739 11.9111 18 11.8125C17.3492 10.9461 16.4492 10.2821 15.7086 10.1219C15.5117 10.0793 15.3337 9.9744 15.2011 9.82272C15.0684 9.67105 14.9882 9.48068 14.9722 9.27983C14.9563 9.07897 15.0054 8.87832 15.1125 8.70761C15.2195 8.5369 15.3787 8.40521 15.5664 8.33205C15.8001 8.24081 16.0085 8.09462 16.1738 7.90584C16.3391 7.71707 16.4565 7.49126 16.5161 7.24751C16.5756 7.00377 16.5756 6.74927 16.516 6.50552C16.4565 6.26178 16.3391 6.03597 16.1738 5.84719C16.0085 5.65842 15.8001 5.51222 15.5664 5.42098C15.3327 5.32974 15.0804 5.29613 14.8309 5.323C14.5814 5.34987 14.3421 5.43643 14.1332 5.57535C13.9242 5.71427 13.7518 5.90147 13.6305 6.12112C13.5729 6.23242 13.4937 6.33107 13.3974 6.41123C13.3011 6.49138 13.1897 6.55142 13.0698 6.5878C12.9499 6.62417 12.8239 6.63614 12.6993 6.623C12.5747 6.60986 12.454 6.57188 12.3443 6.5113C12.2347 6.45072 12.1382 6.36876 12.0608 6.27028C11.9833 6.1718 11.9264 6.0588 11.8933 5.93794C11.8603 5.81708 11.8518 5.69082 11.8684 5.56663C11.885 5.44244 11.9263 5.32283 11.9898 5.21487C12.2218 4.80467 12.5357 4.44655 12.9119 4.16276C13.2881 3.87897 13.7187 3.67556 14.1768 3.56518C14.6349 3.45479 15.1109 3.43979 15.5751 3.52109C16.0393 3.6024 16.4818 3.77828 16.8751 4.03781C17.2685 4.29734 17.6042 4.63497 17.8616 5.02974C18.119 5.42451 18.2924 5.86798 18.3712 6.3326C18.4499 6.79723 18.4323 7.27308 18.3194 7.73061C18.2065 8.18814 18.0007 8.61756 17.7148 8.99221C18.4027 9.45045 19.0066 10.0237 19.5 10.6867C19.6493 10.8856 19.7135 11.1355 19.6784 11.3817C19.6434 11.6278 19.5121 11.8499 19.3133 11.9992ZM4.29141 10.1242C3.55078 10.2844 2.65078 10.9485 2 11.8156C1.8503 12.0145 1.62775 12.1457 1.38132 12.1804C1.13488 12.2151 0.884747 12.1505 0.685939 12.0008C0.48713 11.8511 0.355933 11.6286 0.321209 11.3821C0.286486 11.1357 0.35108 10.8855 0.500783 10.6867C0.994441 10.0239 1.59827 9.45069 2.28594 8.99221C2.00008 8.61756 1.79431 8.18814 1.68141 7.73061C1.5685 7.27308 1.55088 6.79723 1.62963 6.3326C1.70838 5.86798 1.88182 5.42451 2.13918 5.02974C2.39655 4.63497 2.73233 4.29734 3.12568 4.03781C3.51902 3.77828 3.96153 3.6024 4.42572 3.52109C4.8899 3.43979 5.36584 3.45479 5.82398 3.56518C6.28212 3.67556 6.71268 3.87897 7.08889 4.16276C7.46511 4.44655 7.77896 4.80467 8.01094 5.21487C8.07453 5.32283 8.11583 5.44244 8.13241 5.56663C8.14899 5.69082 8.14051 5.81708 8.10746 5.93794C8.07441 6.0588 8.01747 6.1718 7.94001 6.27028C7.86255 6.36876 7.76613 6.45072 7.65645 6.5113C7.54678 6.57188 7.42607 6.60986 7.30147 6.623C7.17686 6.63614 7.05089 6.62417 6.93099 6.5878C6.81109 6.55142 6.6997 6.49138 6.6034 6.41123C6.5071 6.33107 6.42784 6.23242 6.37031 6.12112C6.24901 5.90147 6.07658 5.71427 5.86763 5.57535C5.65868 5.43643 5.41935 5.34987 5.16987 5.323C4.9204 5.29613 4.66812 5.32974 4.43438 5.42098C4.20064 5.51222 3.99231 5.65842 3.82701 5.84719C3.66171 6.03597 3.54431 6.26178 3.48473 6.50552C3.42516 6.74927 3.42516 7.00377 3.48473 7.24751C3.54431 7.49126 3.66171 7.71707 3.82701 7.90584C3.99231 8.09462 4.20064 8.24081 4.43438 8.33205C4.62211 8.40521 4.78129 8.5369 4.88832 8.70761C4.99534 8.87832 5.04452 9.07897 5.02856 9.27983C5.01261 9.48068 4.93237 9.67105 4.79973 9.82272C4.66709 9.9744 4.48912 10.0793 4.29219 10.1219L4.29141 10.1242Z" fill="white"/>
</svg>
