<svg width="21" height="25" viewBox="0 0 21 25" fill="none" xmlns="http://www.w3.org/2000/svg">
<path d="M0 3.12605C2.49332e-05 2.95493 0.0348613 2.78554 0.102471 2.62778C0.17008 2.47002 0.269106 2.32706 0.39375 2.20728C1.82417 0.832528 3.73518 0.0438483 5.7378 0.00177399C7.74042 -0.0403003 9.68414 0.667393 11.1733 1.98081L11.634 2.40287C12.5914 3.22526 13.8209 3.67863 15.0938 3.67863C16.3666 3.67863 17.5961 3.22526 18.5535 2.40287L18.8803 2.11077C19.6809 1.48926 20.8845 1.98595 20.9934 2.98064L21 3.12605V14.7071C21 14.8782 20.9651 15.0476 20.8975 15.2054C20.8299 15.3632 20.7309 15.5061 20.6063 15.6259C19.1758 17.0007 17.2648 17.7893 15.2622 17.8314C13.2596 17.8735 11.3159 17.1658 9.82669 15.8524L9.366 15.4303C8.43876 14.6338 7.2552 14.1826 6.02269 14.1558C4.79019 14.1289 3.58737 14.5282 2.625 15.2836V23.7146C2.62463 24.0426 2.49653 24.3581 2.26689 24.5966C2.03724 24.835 1.72337 24.9786 1.38942 24.9978C1.05546 25.017 0.726627 24.9105 0.470095 24.7C0.213563 24.4895 0.0486985 24.1909 0.00918746 23.8652L0 23.7146V3.12605Z" fill="white"/>
</svg>
